<svg width="400" height="400" viewBox="0 0 400 400" fill="none" xmlns="http://www.w3.org/2000/svg">
<g clip-path="url(#clip0_96_2)">
<path d="M200 36.0368C253.402 36.0368 259.727 36.24 280.816 37.2022C300.316 38.0922 310.906 41.3503 317.954 44.0885C327.289 47.7166 333.952 52.0513 340.95 59.0496C347.949 66.0478 352.283 72.711 355.911 82.0457C358.65 89.094 361.908 99.6838 362.798 119.183C363.76 140.273 363.963 146.598 363.963 200C363.963 253.403 363.76 259.728 362.798 280.817C361.908 300.317 358.65 310.907 355.911 317.955C352.283 327.29 347.949 333.953 340.95 340.951C333.952 347.949 327.289 352.284 317.954 355.911C310.906 358.65 300.316 361.909 280.816 362.799C259.73 363.761 253.405 363.964 200 363.964C146.594 363.964 140.269 363.761 119.183 362.799C99.683 361.909 89.0932 358.65 82.0457 355.911C72.7102 352.284 66.047 347.949 59.0488 340.951C52.0506 333.953 47.7158 327.29 44.0885 317.955C41.3496 310.907 38.0914 300.317 37.2014 280.818C36.2392 259.728 36.036 253.403 36.036 200C36.036 146.598 36.2392 140.273 37.2014 119.184C38.0914 99.6838 41.3496 89.094 44.0885 82.0457C47.7158 72.711 52.0506 66.0478 59.0488 59.0496C66.047 52.0513 72.7102 47.7166 82.0457 44.0885C89.0932 41.3503 99.683 38.0922 119.182 37.2022C140.272 36.24 146.597 36.0368 200 36.0368ZM200 0C145.682 0 138.872 0.230231 117.54 1.20355C96.2518 2.17529 81.7139 5.55572 68.9916 10.5001C55.8398 15.6113 44.6863 22.4499 33.5677 33.5685C22.4491 44.6871 15.6105 55.8406 10.4993 68.9924C5.55493 81.7147 2.1745 96.2526 1.20276 117.541C0.229437 138.872 0 145.683 0 200C0 254.318 0.229437 261.128 1.20276 282.46C2.1745 303.748 5.55493 318.286 10.4993 331.008C15.6105 344.159 22.4491 355.314 33.5677 366.432C44.6863 377.551 55.8398 384.39 68.9916 389.501C81.7139 394.445 96.2518 397.826 117.54 398.797C138.872 399.771 145.682 400 200 400C254.317 400 261.128 399.771 282.459 398.797C303.747 397.826 318.285 394.445 331.008 389.501C344.159 384.39 355.313 377.551 366.431 366.432C377.55 355.314 384.389 344.16 389.5 331.008C394.444 318.286 397.825 303.748 398.796 282.46C399.77 261.128 400 254.318 400 200C400 145.683 399.77 138.872 398.796 117.541C397.825 96.2526 394.444 81.7147 389.5 68.9924C384.389 55.8406 377.55 44.6871 366.431 33.5685C355.313 22.4499 344.159 15.6113 331.008 10.5001C318.285 5.55572 303.747 2.17529 282.459 1.20355C261.128 0.230231 254.317 0 200 0ZM200 97.2974C143.279 97.2974 97.2966 143.279 97.2966 200C97.2966 256.721 143.279 302.703 200 302.703C256.721 302.703 302.703 256.721 302.703 200C302.703 143.279 256.721 97.2974 200 97.2974ZM200 266.667C163.181 266.667 133.333 236.819 133.333 200C133.333 163.182 163.181 133.333 200 133.333C236.818 133.333 266.667 163.182 266.667 200C266.667 236.819 236.818 266.667 200 266.667ZM330.76 93.2397C330.76 106.495 320.015 117.24 306.76 117.24C293.505 117.24 282.76 106.495 282.76 93.2397C282.76 79.9848 293.505 69.2401 306.76 69.2401C320.015 69.2401 330.76 79.9848 330.76 93.2397Z" fill="#1839AF"/>
</g>
<defs>
<clipPath id="clip0_96_2">
<rect width="400" height="400" fill="white"/>
</clipPath>
</defs>
</svg>
